<svg width="168" height="168" viewBox="0 0 168 168" fill="none" xmlns="http://www.w3.org/2000/svg">
<g clip-path="url(#clip0_126_44)">
<rect x="0.5" y="0.5" width="167" height="167" rx="4.5" fill="white" stroke="url(#paint0_linear_126_44)"/>
<path d="M66.3982 97.0545C66.218 96.7136 66.0378 96.4296 65.9177 96.0887C65.0768 94.1572 65.0768 92.6802 65.3771 90.8055C65.6174 89.4421 65.5573 88.7604 65.1368 88.2491C64.6563 87.6811 63.9355 87.6242 62.9144 87.5106H62.7342C62.4338 87.4538 62.1335 87.4538 61.8932 87.4538C59.5506 87.3402 58.2292 87.397 57.6285 88.2491C57.0278 89.0445 57.4483 90.2374 58.2892 91.9417C58.7097 92.7938 58.8899 93.646 59.01 94.2709C57.9889 94.3277 56.7876 94.7821 55.346 95.3502C52.4027 96.4864 48.3782 98.077 43.4528 96.6568C37.6263 95.0094 32.7609 90.6351 30.118 88.2491C28.8566 87.113 28.316 86.6017 27.8955 86.4881C27.2948 86.3176 26.514 86.7153 26.0935 86.9425L25.8532 87.0562C25.5529 87.2834 25.1324 87.6242 24.9522 88.0219C24.5318 89.3285 24.4717 91.7713 25.4928 94.4981C25.1324 94.3277 24.8922 94.2709 24.6519 94.214C24.0512 94.1572 23.3905 94.6117 22.8499 95.123L22.6697 95.2934C22.3694 95.5775 22.009 96.0319 22.009 96.4864C21.8888 98.5883 22.97 101.883 25.5529 104.951H25.4928C24.8922 105.064 24.3516 105.746 23.9912 106.371V106.598C23.811 106.996 23.6308 107.507 23.6908 107.962C24.2915 110.291 26.7542 113.643 30.8988 115.972C33.4216 117.392 37.2659 118.755 42.5518 118.755C44.8944 118.755 47.5373 118.471 50.4205 117.79C57.2681 116.199 63.6352 111.597 66.218 106.201C67.8398 103.019 67.8999 99.8381 66.3982 97.0545ZM26.0334 88.3059C26.0334 88.3059 26.0935 88.2491 26.0935 88.1923C26.2136 88.4196 26.3938 88.7036 26.574 88.9877C28.1358 91.6577 31.5596 97.6794 39.6085 100.69C34.623 99.4972 30.178 97.0545 27.5351 95.5775C27.3549 95.4638 27.1747 95.3502 26.9945 95.2934C25.7331 92.5098 25.5529 89.783 26.0334 88.3059ZM23.1502 96.6C23.1502 96.6 23.1502 96.4864 23.2704 96.3728C23.4506 96.5432 23.7509 96.8841 24.0512 97.1681C26.574 99.8381 32.5206 106.144 43.3927 106.769C43.7531 106.769 44.0534 106.769 44.4138 106.769C45.495 106.769 46.6363 106.655 47.6574 106.428C47.5373 106.485 47.3571 106.485 47.237 106.542C40.4494 108.075 32.9411 106.371 28.9166 105.462C28.2559 105.292 27.7153 105.178 27.2948 105.121C24.2314 102.11 23.0301 98.5883 23.1502 96.6ZM65.257 105.86C62.7942 110.916 56.7876 115.347 50.2403 116.824C33.5418 120.63 25.7331 111.484 24.772 107.735C24.772 107.678 24.772 107.621 24.8321 107.45C25.1324 107.564 25.4928 107.791 25.8532 108.019C29.277 110.007 37.2659 114.608 48.3782 112.052C55.7064 110.405 59.4305 105.064 61.5929 101.145C61.713 100.917 61.653 100.577 61.3526 100.463C61.1124 100.349 60.752 100.406 60.6318 100.69C58.5896 104.383 54.9856 109.496 48.0779 111.086C37.386 113.529 29.6975 109.041 26.3938 107.166C25.9133 106.882 25.5529 106.655 25.2526 106.542C25.4928 106.201 25.7331 105.973 25.8532 105.973C26.1536 105.917 27.415 106.201 28.6163 106.485C31.4995 107.166 36.1847 108.189 41.1702 108.189C43.2125 108.189 45.3749 108.019 47.4172 107.507C52.703 106.314 55.8265 103.303 58.3493 100.236C58.5295 100.009 58.4694 99.6677 58.2292 99.4972C57.9889 99.3268 57.6285 99.3836 57.4483 99.6109C57.208 99.8949 56.9077 100.236 56.6674 100.52C52.4027 104.269 48.0178 105.973 43.3326 105.689C32.9411 105.121 27.1747 99.0428 24.712 96.4296C24.3516 96.0319 24.1113 95.8047 23.871 95.5775C24.1714 95.3502 24.4116 95.2366 24.5318 95.2366C24.8321 95.2934 25.8532 95.8615 26.8744 96.4296C30.3582 98.3611 36.8454 101.94 43.693 102.338C44.0534 102.338 44.3538 102.338 44.7142 102.338C47.1168 102.338 49.1591 101.883 50.9611 101.145H51.0212C51.0812 101.145 51.0812 101.088 51.1413 101.088C53.4238 100.179 55.2258 98.9292 56.7876 97.9066C57.3282 97.5658 57.8087 97.2249 58.2292 96.9409C58.4694 96.7704 58.5295 96.4864 58.4094 96.2592C58.2292 96.0319 57.9288 95.9751 57.6886 96.0887C57.208 96.3728 56.7275 96.7136 56.1869 97.0545C54.6252 98.077 52.8232 99.3268 50.5406 100.179C47.5974 101.031 44.7142 101.088 41.9511 100.293C32.821 97.7362 29.0968 91.2032 27.475 88.4196C27.2348 88.0219 27.1146 87.7379 26.9344 87.5106C27.2348 87.397 27.415 87.3402 27.5351 87.3402C27.7754 87.4538 28.5562 88.1355 29.3371 88.874C31.98 91.26 36.9656 95.7479 43.0323 97.4521C44.534 97.8498 45.9756 98.0202 47.297 98.0202C50.6608 98.0202 53.4238 96.9409 55.6463 96.0887C57.208 95.4638 58.5295 94.9526 59.4305 95.123H59.4906H59.5506C59.5506 95.123 59.5506 95.123 59.6107 95.123C59.6708 95.123 59.6708 95.123 59.7308 95.0662C59.7308 95.0662 59.7909 95.0662 59.7909 95.0094C59.851 95.0094 59.851 94.9526 59.911 94.9526L59.9711 94.8958C59.9711 94.8958 60.0312 94.8389 60.0312 94.7821C60.0312 94.7253 60.0312 94.7253 60.0912 94.6685C60.0912 94.6685 60.0912 94.6685 60.0912 94.6117V94.5549V94.4981C60.0312 93.8164 59.851 92.453 59.2503 91.2032C58.95 90.5783 58.1691 88.9877 58.5295 88.5332C58.8298 88.0787 60.4516 88.1355 61.8932 88.1923C62.1335 88.1923 62.3738 88.1923 62.614 88.2491H62.7942C63.5751 88.3059 64.1157 88.4196 64.2959 88.59C64.4761 88.8172 64.4761 89.3853 64.356 90.3511C63.9956 92.3394 63.9956 94.0436 64.9566 96.2023C65.0768 96.5432 65.257 96.8841 65.4372 97.2249C66.7586 100.009 66.6986 102.849 65.257 105.86Z" fill="#333B41" stroke="#333B41" stroke-width="0.7"/>
<path d="M63.6964 104.894C63.4561 104.78 63.0957 104.894 62.9756 105.121C60.6931 109.779 55.1069 113.87 49.0401 115.233C48.7398 115.29 48.5596 115.574 48.6197 115.858C48.6797 116.085 48.92 116.256 49.1603 116.256C49.2203 116.256 49.2203 116.256 49.2804 116.256C55.7075 114.835 61.5941 110.518 63.9967 105.576C64.1169 105.348 63.9967 105.064 63.6964 104.894Z" fill="#333B41" stroke="#333B41" stroke-width="0.7"/>
<path d="M89.6255 48.0077C86.4284 47.9054 83.2819 48.8276 80.6419 50.6407C78.0019 52.4539 76.0055 55.0638 74.9418 58.0923C74.8919 58.2345 74.8049 58.3607 74.6898 58.4576C74.5748 58.5545 74.4359 58.6186 74.2877 58.6433C72.6668 58.9186 71.1971 59.7659 70.1431 61.0324C69.0891 62.299 68.5201 63.9018 68.5385 65.552C68.5569 67.2023 69.1616 68.7917 70.2436 70.0342C71.3256 71.2767 72.8139 72.0909 74.4405 72.3297C74.6026 72.3535 74.7543 72.4244 74.8767 72.5337C74.9991 72.643 75.087 72.7858 75.1294 72.9447C75.9252 75.9208 77.6403 78.5671 80.0282 80.5033C82.416 82.4395 85.3538 83.5659 88.4193 83.7209C87.7502 86.1745 87.3446 88.693 87.2096 91.2333L82.1491 90.4302C81.0822 90.2608 79.992 90.5238 79.1183 91.1613C78.2446 91.7988 77.6589 92.7585 77.4901 93.8296C77.3213 94.9006 77.5832 95.995 78.2181 96.8722C78.8531 97.7494 79.8091 98.3373 80.8759 98.5068L87.7495 99.5969C87.9445 100.666 88.1882 101.725 88.4796 102.771C86.9155 104.479 86.0475 106.715 86.0477 109.035V110.481C86.0475 110.705 85.9592 110.919 85.802 111.076C85.6449 111.234 85.4318 111.323 85.2096 111.323H84.7079C84.1132 111.323 83.5241 111.44 82.9745 111.668C82.4249 111.897 81.9255 112.231 81.5047 112.653C81.084 113.075 80.7503 113.577 80.5225 114.128C80.2948 114.68 80.1775 115.271 80.1775 115.868V117.054C80.1775 117.389 80.2434 117.721 80.3712 118.03C80.4991 118.34 80.6864 118.621 80.9226 118.858C81.1588 119.094 81.4391 119.282 81.7476 119.41C82.0561 119.538 82.3866 119.604 82.7204 119.603H114.923C119.252 119.604 123.532 118.686 127.483 116.91C131.434 115.133 134.966 112.539 137.848 109.296C142.41 104.704 145.459 98.8179 146.582 92.4318C147.273 86.885 145.773 81.2873 142.404 76.8364C139.774 73.4476 136.2 70.9195 132.137 69.5725C129.33 68.7241 126.327 68.7963 123.564 69.7788C120.801 70.7613 118.423 72.6028 116.774 75.0356C116.46 75.4967 116.241 76.0152 116.127 76.5616C116.014 77.108 116.008 77.6713 116.112 78.2197C116.215 78.7681 116.426 79.2906 116.73 79.7574C117.035 80.2241 117.429 80.6261 117.888 80.94C118.348 81.254 118.865 81.4738 119.409 81.5871C119.953 81.7004 120.515 81.7049 121.061 81.6003C121.607 81.4957 122.127 81.2839 122.592 80.9773C123.056 80.6707 123.456 80.2752 123.768 79.8134C124.395 78.8884 125.296 78.1847 126.343 77.8015C127.39 77.4183 128.53 77.3751 129.603 77.678C132.011 78.5014 134.128 80.0083 135.699 82.0159C137.667 84.637 138.567 87.9127 138.214 91.1761C137.343 95.8459 135.066 100.135 131.689 103.463C128.458 107.178 124.093 109.715 119.276 110.679C119.236 110.687 119.195 110.685 119.157 110.672C119.118 110.66 119.083 110.639 119.055 110.609C119.027 110.58 119.007 110.545 118.996 110.506C118.985 110.466 118.984 110.425 118.993 110.386C120.479 104.132 120.056 97.5742 117.78 91.5647C116.615 87.7952 114.669 84.3154 112.072 81.3527C109.474 78.39 106.283 76.0115 102.706 74.3725C102.884 73.9048 103.037 73.4281 103.166 72.9445C103.209 72.7856 103.297 72.6428 103.419 72.5335C103.542 72.4242 103.693 72.3533 103.855 72.3295C105.482 72.0903 106.97 71.276 108.052 70.0332C109.133 68.7904 109.738 67.2007 109.756 65.5504C109.774 63.9001 109.204 62.2977 108.15 61.0314C107.096 59.7651 105.626 58.9181 104.005 58.6431C103.857 58.6184 103.718 58.5543 103.603 58.4574C103.488 58.3605 103.401 58.2343 103.351 58.0921C102.342 55.2186 100.491 52.7183 98.0422 50.9188C95.5931 49.1193 92.6589 48.1046 89.6255 48.0077ZM88.6825 49.1136C91.6461 49.0181 94.5631 49.8727 97.0103 51.5536C99.4575 53.2344 101.308 55.6542 102.293 58.4619C102.409 58.7905 102.61 59.082 102.875 59.3062C103.141 59.5304 103.462 59.6791 103.804 59.7368C105.165 59.9681 106.399 60.6794 107.284 61.7425C108.169 62.8057 108.647 64.151 108.632 65.5364C108.617 66.9218 108.11 68.2565 107.203 69.3002C106.295 70.344 105.046 71.0284 103.681 71.2302C103.305 71.2852 102.954 71.4494 102.67 71.7026C102.386 71.9558 102.182 72.2868 102.084 72.6549C101.664 74.2271 100.964 75.7098 100.017 77.0311C100.145 74.4422 99.252 71.9069 97.531 69.9745C97.5115 69.948 97.4975 69.9177 97.4899 69.8856C97.4823 69.8535 97.4813 69.8203 97.4869 69.7878C97.4925 69.7554 97.5047 69.7243 97.5226 69.6967C97.5405 69.669 97.5638 69.6454 97.5912 69.6271C98.9577 68.4524 99.8346 66.8048 100.048 65.0114C100.261 63.2179 99.7944 61.4095 98.7413 59.9451C97.6882 58.4806 96.1253 57.4673 94.3626 57.1058C92.5999 56.7442 90.7662 57.0611 89.2254 57.9935C89.0021 58.1284 88.7463 58.1997 88.4856 58.1997C88.225 58.1997 87.9692 58.1284 87.7459 57.9935H87.7296C86.1888 57.0648 84.3568 56.7507 82.5964 57.1136C80.836 57.4765 79.2755 58.4899 78.2238 59.9529C77.1722 61.4159 76.7061 63.222 76.9178 65.0136C77.1295 66.8052 78.0037 68.4517 79.3671 69.6271C79.3901 69.6497 79.4084 69.6767 79.4208 69.7065C79.4333 69.7364 79.4397 69.7685 79.4397 69.8008C79.4397 69.8331 79.4333 69.865 79.4208 69.8949C79.4084 69.9247 79.3901 69.9519 79.3671 69.9745C78.1303 71.3661 77.3123 73.0814 77.0082 74.9212C76.6638 74.1923 76.3855 73.4338 76.1764 72.6549C76.0781 72.2873 75.8749 71.9566 75.5917 71.7034C75.3085 71.4503 74.9578 71.2858 74.5827 71.2302C73.2173 71.0284 71.9685 70.344 71.0609 69.3002C70.1532 68.2565 69.6464 66.9218 69.6315 65.5364C69.6166 64.151 70.0946 62.8057 70.9796 61.7425C71.8646 60.6794 73.0985 59.9681 74.4592 59.7368C74.8009 59.6785 75.121 59.5298 75.3861 59.3056C75.6513 59.0814 75.8519 58.7901 75.9672 58.4619C76.9016 55.7989 78.6156 53.4815 80.8845 51.8133C83.1535 50.1451 85.8716 49.2041 88.6825 49.1136ZM83.8154 58.0698C83.9709 58.0638 84.1266 58.0638 84.2821 58.0698C85.2973 58.1137 86.2853 58.413 87.1553 58.9401C87.5507 59.1789 88.0035 59.305 88.4649 59.305C88.9264 59.305 89.3791 59.1789 89.7745 58.9401C91.078 58.1551 92.6276 57.89 94.1165 58.1975C95.6054 58.5049 96.925 59.3623 97.8141 60.6C98.7033 61.8377 99.097 63.3655 98.9176 64.8809C98.7381 66.3962 97.9984 67.7887 96.8449 68.7826C96.7094 68.9003 96.5986 69.0438 96.519 69.205C96.4394 69.3661 96.3927 69.5418 96.3815 69.7214C96.3703 69.9009 96.3949 70.0808 96.4538 70.2507C96.5127 70.4206 96.6048 70.577 96.7246 70.7107C97.6682 71.7702 98.3403 73.0445 98.6827 74.4235C99.0252 75.8025 99.0276 77.2446 98.6899 78.6247C97.2914 80.0463 95.5952 81.1377 93.7245 81.8195C91.8538 82.5013 89.8553 82.7566 87.8741 82.5668C85.8929 82.377 83.9786 81.7468 82.2701 80.7221C80.5616 79.6974 79.1016 78.3037 77.9962 76.6423C77.9703 74.4565 78.761 72.3403 80.2122 70.7107C80.3315 70.5764 80.4229 70.4195 80.481 70.2493C80.5391 70.079 80.5628 69.8987 80.5507 69.7191C80.5386 69.5395 80.4909 69.3643 80.4105 69.2035C80.33 69.0427 80.2184 68.8996 80.0822 68.7826C79.1527 67.9856 78.4848 66.9251 78.1661 65.7404C77.8473 64.5557 77.8925 63.3019 78.2958 62.1434C78.6991 60.985 79.4416 59.9758 80.4261 59.2484C81.4105 58.5209 82.591 58.109 83.8126 58.0668L83.8154 58.0698ZM128.06 70.0955C129.33 70.0845 130.593 70.265 131.81 70.6311C135.656 71.9112 139.037 74.3068 141.528 77.5156C144.714 81.7258 146.137 87.0187 145.493 92.2665C144.402 98.4294 141.453 104.108 137.045 108.534C134.266 111.667 130.859 114.174 127.047 115.891C123.235 117.608 119.104 118.495 114.926 118.495H82.7233C82.5346 118.495 82.3477 118.458 82.1732 118.386C81.9987 118.314 81.8401 118.208 81.7065 118.074C81.5729 117.94 81.4669 117.781 81.3946 117.606C81.3223 117.431 81.2851 117.243 81.2851 117.054V115.868C81.2851 115.417 81.3737 114.97 81.5459 114.553C81.7181 114.136 81.9705 113.757 82.2886 113.438C82.6068 113.119 82.9844 112.866 83.4 112.693C83.8156 112.521 84.261 112.432 84.7107 112.432H85.2123C85.4677 112.433 85.7207 112.383 85.9567 112.285C86.1928 112.187 86.4073 112.043 86.588 111.862C86.7688 111.681 86.9122 111.466 87.0101 111.229C87.108 110.992 87.1584 110.738 87.1586 110.482V109.035C87.208 106.909 88.0839 104.887 89.5992 103.4C91.1144 101.914 93.1487 101.082 95.2671 101.082C97.3854 101.082 99.4197 101.914 100.935 103.4C102.45 104.887 103.326 106.909 103.376 109.035V111.511C103.38 111.656 103.44 111.792 103.543 111.893C103.646 111.994 103.784 112.05 103.928 112.05C104.072 112.05 104.21 111.994 104.313 111.893C104.416 111.792 104.476 111.656 104.48 111.511V109.035C104.481 107.414 104.057 105.822 103.252 104.418C102.447 103.013 101.289 101.845 99.8929 101.032C100.743 100.83 101.544 100.459 102.249 99.9412C102.953 99.4229 103.546 98.7677 103.994 98.0145C104.441 97.2614 104.733 96.4256 104.852 95.557C104.971 94.6884 104.915 93.8046 104.687 92.9581C104.096 90.7654 103.279 88.6405 102.249 86.6184C102.182 86.4874 102.066 86.3885 101.926 86.3434C101.786 86.2984 101.634 86.3108 101.504 86.378C101.373 86.4453 101.275 86.5618 101.23 86.702C101.185 86.8422 101.197 86.9947 101.264 87.1258C102.259 89.0788 103.047 91.1307 103.617 93.2483C103.852 94.1227 103.866 95.0424 103.657 95.9236C103.448 96.8047 103.023 97.6195 102.42 98.2936C101.818 98.9677 101.057 99.4797 100.207 99.7831C99.3565 100.087 98.4443 100.172 97.553 100.031L81.0533 97.411C80.2784 97.2851 79.5849 96.8558 79.1245 96.2175C78.6642 95.5792 78.4746 94.7839 78.5972 94.0055C78.7198 93.2272 79.1447 92.5293 79.7788 92.0648C80.4129 91.6003 81.2046 91.407 81.9803 91.5272L94.683 93.5449C94.8271 93.5663 94.9739 93.5297 95.0913 93.443C95.2088 93.3563 95.2873 93.2266 95.3099 93.082C95.3325 92.9375 95.2974 92.7898 95.2121 92.6712C95.1268 92.5525 94.9982 92.4725 94.8544 92.4485L88.3111 91.4095C88.4398 88.8119 88.8605 86.2371 89.5652 83.7343C92.244 83.6572 94.8493 82.8371 97.0925 81.3648C99.3356 79.8926 101.129 77.8257 102.274 75.3932C105.709 76.971 108.773 79.2594 111.265 82.1085C113.758 84.9575 115.623 88.3029 116.739 91.9257C118.946 97.7362 119.357 104.079 117.92 110.128C117.867 110.349 117.871 110.58 117.93 110.799C117.99 111.018 118.103 111.218 118.26 111.382C118.417 111.545 118.612 111.666 118.828 111.734C119.043 111.802 119.273 111.814 119.494 111.77C124.538 110.76 129.109 108.109 132.499 104.226C136.029 100.731 138.406 96.2332 139.309 91.3391C139.705 87.7784 138.728 84.2006 136.578 81.3408C134.868 79.1508 132.559 77.5091 129.933 76.617C128.634 76.2446 127.252 76.2929 125.982 76.7547C124.712 77.2164 123.62 78.0684 122.86 79.1893C122.629 79.5301 122.333 79.8217 121.99 80.0478C121.647 80.2739 121.262 80.43 120.859 80.507C120.456 80.584 120.041 80.5803 119.639 80.4965C119.237 80.4126 118.856 80.2501 118.516 80.0182C118.177 79.7863 117.886 79.4895 117.661 79.1449C117.436 78.8002 117.281 78.4145 117.204 78.0096C117.127 77.6046 117.131 77.1885 117.215 76.7849C117.298 76.3814 117.46 75.9983 117.691 75.6576C118.843 73.9586 120.388 72.5652 122.194 71.5966C124 70.628 126.013 70.1127 128.06 70.0955ZM88.9143 99.7819L92.213 100.305C91.1876 100.667 90.2341 101.209 89.3968 101.905C89.2148 101.202 89.0549 100.494 88.9174 99.7819H88.9143Z" fill="#333B41" stroke="#333B41" stroke-width="0.7"/>
<path d="M93.0679 61.6307C92.4493 61.6418 91.8601 61.898 91.4289 62.3434C90.9977 62.7889 90.7594 63.3874 90.766 64.0085C90.766 64.6328 91.013 65.2313 91.4527 65.6728C91.8924 66.1142 92.4888 66.3623 93.1107 66.3623C93.7325 66.3623 94.3289 66.1142 94.7686 65.6728C95.2083 65.2313 95.4553 64.6328 95.4553 64.0085C95.4586 63.6937 95.399 63.3814 95.28 63.0901C95.161 62.7989 94.9849 62.5345 94.7623 62.3127C94.5397 62.091 94.275 61.9164 93.984 61.7992C93.6929 61.682 93.3814 61.6248 93.0679 61.6307ZM93.0874 62.7526C93.2532 62.7492 93.4179 62.7793 93.5719 62.8411C93.7259 62.9029 93.866 62.995 93.9838 63.1122C94.1016 63.2293 94.1949 63.369 94.2579 63.523C94.321 63.6769 94.3526 63.842 94.3509 64.0085C94.351 64.172 94.319 64.3339 94.2567 64.485C94.1944 64.6361 94.1031 64.7734 93.988 64.889C93.8728 65.0046 93.7362 65.0963 93.5857 65.1588C93.4352 65.2214 93.274 65.2537 93.1111 65.2537C92.9483 65.2537 92.787 65.2214 92.6365 65.1588C92.4861 65.0963 92.3494 65.0046 92.2343 64.889C92.1191 64.7734 92.0278 64.6361 91.9655 64.485C91.9033 64.3339 91.8713 64.172 91.8713 64.0085C91.868 63.6805 91.994 63.3643 92.2217 63.129C92.4495 62.8938 92.7607 62.7586 93.0874 62.7526Z" fill="#333B41" stroke="#333B41" stroke-width="0.7"/>
<path d="M83.7849 61.6306C83.1663 61.6418 82.5772 61.8979 82.146 62.3434C81.7148 62.7888 81.4765 63.3874 81.4831 64.0084C81.4742 64.323 81.5283 64.6359 81.642 64.9291C81.7558 65.2223 81.9269 65.4897 82.1454 65.7153C82.3638 65.9409 82.6251 66.1202 82.9138 66.2426C83.2025 66.3651 83.5127 66.4283 83.8261 66.4283C84.1395 66.4283 84.4498 66.3651 84.7385 66.2426C85.0272 66.1202 85.2885 65.9409 85.5069 65.7153C85.7253 65.4897 85.8965 65.2223 86.0103 64.9291C86.124 64.6359 86.1781 64.323 86.1692 64.0084C86.1725 63.6939 86.113 63.3819 85.9941 63.0909C85.8753 62.7999 85.6996 62.5356 85.4773 62.3139C85.255 62.0922 84.9907 61.9176 84.7 61.8002C84.4093 61.6828 84.0981 61.6252 83.7849 61.6306ZM83.8043 62.7525C83.9699 62.7496 84.1343 62.7799 84.2879 62.8419C84.4416 62.9038 84.5812 62.996 84.6988 63.1131C84.8163 63.2302 84.9092 63.3698 84.9721 63.5235C85.0349 63.6773 85.0664 63.8422 85.0648 64.0084C85.069 64.1744 85.0401 64.3394 84.9798 64.494C84.9195 64.6485 84.8289 64.7894 84.7135 64.9083C84.5981 65.0272 84.4602 65.1214 84.3079 65.1859C84.1555 65.2504 83.9919 65.2837 83.8265 65.2837C83.6612 65.2837 83.4975 65.2504 83.3452 65.1859C83.1929 65.1214 83.0549 65.0272 82.9395 64.9083C82.8241 64.7894 82.7336 64.6485 82.6733 64.494C82.6129 64.3394 82.5841 64.1744 82.5883 64.0084C82.585 63.6804 82.7109 63.3642 82.9387 63.129C83.1665 62.8937 83.4776 62.7585 83.8043 62.7525Z" fill="#333B41" stroke="#333B41" stroke-width="0.7"/>
<path d="M84.4982 75.8265C84.947 76.4644 85.5418 76.9848 86.2326 77.344C86.9233 77.7032 87.6899 77.8909 88.4679 77.8909C89.2459 77.8909 90.0125 77.7032 90.7032 77.344C91.394 76.9848 91.9888 76.4644 92.4377 75.8265C92.5198 75.7062 92.5514 75.5582 92.5257 75.4146C92.5 75.2711 92.4191 75.1435 92.3004 75.0594C92.1818 74.9753 92.0349 74.9416 91.8915 74.9653C91.7482 74.9891 91.62 75.0684 91.5345 75.1864C91.1878 75.6791 90.7283 76.0813 90.1947 76.3587C89.661 76.6362 89.0689 76.7809 88.4679 76.7809C87.867 76.7809 87.2748 76.6362 86.7412 76.3587C86.2075 76.0813 85.748 75.6791 85.4013 75.1864C85.3158 75.0684 85.1876 74.9891 85.0443 74.9653C84.9009 74.9415 84.754 74.9753 84.6354 75.0594C84.5167 75.1435 84.4358 75.2711 84.4101 75.4146C84.3844 75.5582 84.416 75.7062 84.4982 75.8265Z" fill="#333B41" stroke="#333B41" stroke-width="0.7"/>
</g>
<defs>
<linearGradient id="paint0_linear_126_44" x1="-7.44304" y1="24.8889" x2="195.1" y2="114.913" gradientUnits="userSpaceOnUse">
<stop stop-color="#F9804B"/>
<stop offset="1" stop-color="#FE9013"/>
</linearGradient>
<clipPath id="clip0_126_44">
<rect width="168" height="168" rx="5" fill="white"/>
</clipPath>
</defs>
</svg>
