<svg width="168" height="168" viewBox="0 0 168 168" fill="none" xmlns="http://www.w3.org/2000/svg">
<g clip-path="url(#clip0_126_42)">
<rect x="0.5" y="0.5" width="167" height="167" rx="4.5" fill="white" stroke="url(#paint0_linear_126_42)"/>
<path d="M76.9727 79.0333C76.9179 79.0163 76.8647 78.9961 76.8136 78.9717C61.5438 73.2363 54.4351 83.939 54.4137 83.97C54.2636 84.1886 54.0431 84.3617 53.7715 84.4493L35.6413 90.3053C34.6161 90.6366 33.7826 91.2824 33.2286 92.1124C32.6766 92.9391 32.4004 93.9579 32.4866 95.0387L33.6618 109.798C33.6886 110.129 33.7875 110.427 33.95 110.676C34.1136 110.927 34.3465 111.138 34.6383 111.296C34.9335 111.454 35.2377 111.533 35.5349 111.531C35.8272 111.529 36.1302 111.446 36.4265 111.281L36.4274 111.283L54.7204 101.13C54.9129 101.02 55.1371 100.96 55.375 100.968C55.4203 100.97 71.2149 101.58 77.1092 102.687C82.3398 103.67 84.5584 101.745 84.565 101.74L84.5662 101.742C84.6276 101.69 84.6948 101.644 84.7678 101.605L102.447 91.9756L77.8784 91.9756V91.9723C77.7696 91.9723 77.6595 91.9579 77.5499 91.9273C76.6199 91.6678 76.0016 91.0316 75.6887 90.2784C75.5061 89.8388 75.431 89.3587 75.4628 88.8956C75.4949 88.4188 75.6421 87.9474 75.9018 87.5396C76.2835 86.9401 76.8845 86.4948 77.6978 86.3712L93.5798 81.4072C94.4471 81.1362 94.9883 80.3979 95.1524 79.5885C95.2262 79.2241 95.2241 78.8453 95.1413 78.4871C95.0654 78.1578 94.9166 77.8483 94.6915 77.5918C94.1725 76.9997 93.1985 76.6684 91.6885 76.9378L78.237 79.3373V79.3353C78.0181 79.3737 77.7869 79.3539 77.5659 79.265C77.3664 79.1845 77.1694 79.1084 76.9727 79.0333ZM76.1005 76.111V59.8639C76.1005 58.2501 76.7584 56.7838 77.8182 55.7216C78.8776 54.6594 80.3406 54 81.9511 54L132.149 54C133.76 54 135.222 54.6594 136.282 55.7216C137.342 56.7838 138 58.2501 138 59.8639V86.1118C138 87.726 137.342 89.1922 136.282 90.254C135.222 91.3162 133.76 91.9756 132.149 91.9756H107.608L86.0473 103.718C85.4669 104.156 82.3872 106.195 76.6549 105.118C71.416 104.133 57.9283 103.546 55.6268 103.451L37.6137 113.448L37.615 113.45C36.9624 113.812 36.2588 113.995 35.5444 114C34.835 114.004 34.1297 113.829 33.4697 113.474C32.8052 113.117 32.2693 112.625 31.8823 112.031C31.4935 111.435 31.2586 110.744 31.1984 109.992L30.0232 95.2325C29.8921 93.5882 30.3228 92.0227 31.1807 90.7374C32.0364 89.455 33.3172 88.4597 34.8873 87.9524L52.6337 82.2203C54.0905 80.3136 61.7499 71.5246 76.1005 76.111ZM107.293 89.4967H107.304H132.149C133.076 89.4967 133.921 89.1154 134.534 88.5014C135.146 87.8875 135.527 87.0414 135.527 86.1118V67.1068L78.5738 67.1068V76.7613L91.2635 74.4973C93.7521 74.0535 95.4987 74.7609 96.5465 75.9557C97.0494 76.5291 97.3804 77.2121 97.547 77.9351C97.6187 78.2446 97.6587 78.5623 97.669 78.882H101.352C101.693 78.882 101.97 79.1597 101.97 79.5018C101.97 79.8439 101.693 80.1215 101.352 80.1215H97.5573C97.3648 81.0267 96.9307 81.8877 96.272 82.5678C96.3585 82.6744 96.4105 82.8103 96.4105 82.9582C96.4105 83.3003 96.1335 83.5779 95.7922 83.5779H94.8243C94.661 83.6502 94.4908 83.7147 94.3139 83.7696L78.3388 88.7634C78.2469 88.7919 78.155 88.8092 78.0631 88.8163C78.021 88.8249 77.9934 88.8435 77.979 88.8663C77.9493 88.9125 77.9316 88.9807 77.9262 89.06C77.92 89.1526 77.934 89.2464 77.9687 89.3294C77.9963 89.3959 78.0408 89.455 78.1018 89.4967L107.293 89.4967ZM122.998 77.4567C123.913 77.4567 124.775 77.6872 125.528 78.0938C125.83 77.9314 126.154 77.7963 126.493 77.6926C126.993 77.5393 127.518 77.4567 128.054 77.4567C129.529 77.4567 130.864 78.0562 131.831 79.025C132.797 79.9938 133.396 81.3324 133.396 82.8103C133.396 84.2885 132.797 85.6272 131.831 86.5964C130.864 87.5652 129.529 88.1647 128.054 88.1647C127.518 88.1647 126.993 88.0821 126.493 87.9288C126.154 87.8247 125.83 87.69 125.528 87.5276C124.775 87.9342 123.913 88.1647 122.998 88.1647C121.523 88.1647 120.188 87.5652 119.221 86.5964C118.254 85.6276 117.656 84.289 117.656 82.8107C117.656 81.3324 118.254 79.9938 119.221 79.025C120.188 78.0557 121.523 77.4567 122.998 77.4567ZM126.996 79.2597C127.832 80.205 128.34 81.4485 128.34 82.8107C128.34 84.1729 127.832 85.4164 126.996 86.3617C127.325 86.4592 127.679 86.5117 128.054 86.5117C129.074 86.5117 129.997 86.0977 130.665 85.428C131.333 84.7583 131.747 83.8328 131.747 82.8103C131.747 81.7881 131.333 80.8627 130.665 80.1934C129.997 79.5237 129.074 79.1093 128.054 79.1093C127.679 79.1093 127.325 79.1622 126.996 79.2597ZM125.61 80.1934C124.942 79.5237 124.018 79.1093 122.998 79.1093C121.978 79.1093 121.055 79.5237 120.387 80.1934C119.719 80.8631 119.305 81.7882 119.305 82.8107C119.305 83.8328 119.719 84.7583 120.387 85.428C121.055 86.0977 121.978 86.5121 122.998 86.5121C124.018 86.5121 124.942 86.0977 125.61 85.428C126.278 84.7583 126.691 83.8328 126.691 82.8107C126.691 81.7882 126.278 80.8631 125.61 80.1934ZM98.6039 83.5779C98.2626 83.5779 97.9856 83.3003 97.9856 82.9582C97.9856 82.6157 98.2626 82.3385 98.6039 82.3385H100.714C101.055 82.3385 101.332 82.6157 101.332 82.9582C101.332 83.3003 101.055 83.5779 100.714 83.5779H98.6039ZM122.594 73.0459C122.252 73.0459 121.976 72.7682 121.976 72.4261C121.976 72.084 122.252 71.8064 122.594 71.8064H130.553C130.895 71.8064 131.171 72.084 131.171 72.4261C131.171 72.7682 130.895 73.0459 130.553 73.0459H122.594ZM104.408 73.0459C104.067 73.0459 103.79 72.7682 103.79 72.4261C103.79 72.084 104.067 71.8064 104.408 71.8064H115.901C116.242 71.8064 116.519 72.084 116.519 72.4261C116.519 72.7682 116.242 73.0459 115.901 73.0459H104.408ZM80.9787 73.0459C80.6374 73.0459 80.3604 72.7682 80.3604 72.4261C80.3604 72.084 80.6374 71.8064 80.9787 71.8064L97.7564 71.8064C98.0981 71.8064 98.3747 72.084 98.3747 72.4261C98.3747 72.7682 98.0981 73.0459 97.7564 73.0459L80.9787 73.0459ZM135.527 65.4542V60.6902L78.5738 60.6902V65.4542L135.527 65.4542ZM135.424 59.0376C135.272 58.4377 134.959 57.9001 134.534 57.4742C133.921 56.8602 133.076 56.4789 132.149 56.4789L81.9511 56.4789C81.0236 56.4789 80.1794 56.8602 79.5668 57.4742C79.1418 57.9001 78.8286 58.4377 78.6764 59.0376L135.424 59.0376Z" fill="#333B41"/>
</g>
<defs>
<linearGradient id="paint0_linear_126_42" x1="-7.44304" y1="24.8889" x2="195.1" y2="114.913" gradientUnits="userSpaceOnUse">
<stop stop-color="#F9804B"/>
<stop offset="1" stop-color="#FE9013"/>
</linearGradient>
<clipPath id="clip0_126_42">
<rect width="168" height="168" rx="5" fill="white"/>
</clipPath>
</defs>
</svg>
