<svg width="168" height="168" viewBox="0 0 168 168" fill="none" xmlns="http://www.w3.org/2000/svg">
<g clip-path="url(#clip0_126_43)">
<rect x="0.5" y="0.5" width="167" height="167" rx="4.5" fill="white" stroke="url(#paint0_linear_126_43)"/>
<path d="M79.9738 43.264C79.6244 42.9363 79.2749 42.6961 78.9472 42.5213C78.6196 42.3684 78.2483 42.2811 77.8333 42.2811C77.3528 42.2811 77.0033 42.3903 76.763 42.5869C76.5228 42.7834 76.3917 43.1111 76.3917 43.5479C76.3917 43.8537 76.5228 44.1377 76.7849 44.3342C77.047 44.5527 77.3528 44.7492 77.7459 44.9458C78.1391 45.1424 78.5541 45.339 78.9909 45.5574C79.4278 45.7758 79.8428 46.0161 80.2359 46.3219C80.6291 46.6277 80.9349 46.9771 81.197 47.414C81.4591 47.8508 81.5902 48.375 81.5902 48.9866C81.5902 49.9258 81.3281 50.734 80.8257 51.4111C80.3233 52.0882 79.537 52.5251 78.5322 52.7653V54.8185H76.632V52.8527C76.0641 52.7872 75.4525 52.6343 74.8191 52.3722C74.1856 52.1101 73.6396 51.7824 73.1809 51.3674L74.4478 49.4235C74.9501 49.7948 75.4307 50.0787 75.8675 50.2753C76.3262 50.4719 76.7849 50.5593 77.2436 50.5593C77.7896 50.5593 78.2046 50.4501 78.4449 50.2316C78.707 50.0132 78.838 49.6637 78.838 49.2051C78.838 48.8556 78.707 48.5716 78.4449 48.3314C78.1828 48.0911 77.877 47.8727 77.4838 47.6543C77.0907 47.4358 76.6757 47.2174 76.2388 46.999C75.802 46.7806 75.387 46.5185 74.9938 46.2127C74.6007 45.9069 74.2949 45.5574 74.0328 45.1424C73.7706 44.7274 73.6396 44.2469 73.6396 43.6571C73.6396 42.6961 73.9017 41.8879 74.4259 41.2545C74.9501 40.6211 75.6928 40.2061 76.6101 40.0313V38H78.5104V39.9876C79.1438 40.075 79.6899 40.2716 80.1704 40.5555C80.6509 40.8395 81.0659 41.189 81.4591 41.604L79.9738 43.264Z" fill="#333B41"/>
<path fill-rule="evenodd" clip-rule="evenodd" d="M127 114L123.406 111.789L115.389 126.164L119.26 128.099L127 114Z" fill="#333B41"/>
<path fill-rule="evenodd" clip-rule="evenodd" d="M121.471 111.236C112.072 100.454 103.778 103.219 92.7209 110.406C83.0454 116.764 75.858 112.341 68.6705 115.382C67.0119 116.211 64.5239 118.147 66.7354 120.082C67.8412 120.911 72.2642 121.74 73.6464 121.464C81.1103 119.805 83.3219 123.123 94.6559 120.911C91.3387 123.399 80.5575 121.74 73.9229 122.57C68.6705 123.675 60.1008 119.529 67.0119 114.829C63.971 113.447 61.2066 112.618 57.8893 112.341C54.572 109.853 49.3197 106.813 46.5552 105.707C44.3437 104.325 38.8149 104.877 42.4086 108.471C46.0024 111.788 55.6778 119.252 57.6129 120.358C65.3532 125.058 72.5407 128.375 80.0046 132.522C80.0046 132.522 82.4926 133.904 87.4685 131.969C91.0622 130.31 107.096 121.464 110.966 122.846C113.177 123.675 114.283 124.228 114.283 124.228L121.471 111.236Z" stroke="#333B41" stroke-width="1.5"/>
<path fill-rule="evenodd" clip-rule="evenodd" d="M74.7528 110.406C75.3057 109.3 75.8586 108.471 76.6879 108.195C77.5172 107.918 77.7937 108.471 78.3465 109.024C78.8994 109.853 79.1759 110.13 80.0052 110.683C80.2816 110.959 80.8345 110.959 81.1109 110.959L80.5581 110.683C79.7287 110.13 79.1759 109.577 79.4523 108.471C79.4523 108.195 79.1759 107.642 79.7287 107.642C80.2816 107.918 81.1109 108.471 81.9403 108.471C81.9403 108.471 82.7696 108.747 82.4931 108.471C82.4931 108.195 81.9403 107.918 81.6638 107.642C80.0052 106.259 80.0052 105.983 80.0052 104.048C80.2816 101.284 79.1759 99.072 77.2408 97.1369C72.8177 92.7139 74.7528 86.6322 78.0701 80.8269C81.1109 75.5746 83.8753 74.7452 80.8345 68.3871C79.7287 65.6227 77.7937 62.8583 77.5172 61.1996C77.5172 60.6468 77.5172 60.9232 77.5172 61.1996C77.2408 62.8583 78.3465 65.3463 79.4523 67.8342C81.9403 73.363 81.3874 73.9159 77.7937 78.8918C73.9235 83.8678 71.1591 89.1202 72.8177 94.649C73.9235 98.5191 79.4523 102.389 76.6879 104.877C75.3057 105.983 73.3706 108.747 73.0942 110.406C72.8177 111.235 72.8177 111.235 72.5413 111.788C72.2648 112.065 72.5413 112.065 72.8177 112.065C74.1999 111.788 74.1999 111.235 74.7528 110.406Z" fill="#333B41"/>
<path d="M93.068 84.529L93.9801 84.2684L94.0232 85.2161C94.171 88.4683 92.7785 92.3664 90.4893 95.4425C89.3023 97.0375 87.8405 98.4545 86.1798 99.4487C87.2729 99.074 88.4759 98.3838 89.693 97.1695C92.9277 93.6792 93.8196 89.2419 94.8558 83.5536C93.8903 83.6402 92.939 83.8564 91.9621 84.1392C91.3211 84.3247 90.6773 84.5364 90.0111 84.757C89.9707 84.7704 89.9303 84.7838 89.8898 84.7972C89.2724 85.0018 88.6358 85.2127 87.983 85.4089C82.8544 87.3021 80.0789 89.6595 79.0705 92.3645C78.8202 93.654 78.8551 94.8192 79.2935 95.696L79.3303 95.7696L79.3502 95.8495C79.5236 96.5427 80.2251 97.1847 81.1664 97.7019C82.2176 96.713 82.9504 95.8296 83.6711 94.9124C83.4958 95.0928 83.3319 95.265 83.177 95.428C83.0512 95.5602 82.9313 95.6863 82.8158 95.8057C82.6195 96.0085 82.4294 96.1985 82.2546 96.3497C82.0972 96.4858 81.8775 96.6584 81.6242 96.7429L81.4353 96.8059L81.24 96.7668C80.3452 96.5879 79.6727 96.0935 79.397 95.2664C79.1499 94.5252 79.2728 93.6546 79.5608 92.7804C80.0551 90.8473 81.5708 89.3363 83.8139 88.0545C86.0718 86.7643 89.1837 85.6388 93.068 84.529Z" stroke="#333B41" stroke-width="1.5"/>
<path d="M66.3596 66.3644C64.8834 65.8492 63.5975 65.4005 62.1588 65.1376C62.2081 65.3789 62.2565 65.6175 62.3044 65.8535C62.435 66.4963 62.5616 67.1198 62.6907 67.7246C62.6549 67.2771 62.6472 66.8382 62.6697 66.4124L62.7194 65.4666L63.6286 65.7318C66.9611 66.7038 69.6538 67.6904 71.6309 68.8048C73.3949 69.799 74.6825 70.9474 75.2883 72.3666C74.4485 70.1059 72.2374 68.1687 67.9065 66.8949L67.8936 66.8911L67.8809 66.8869C67.3455 66.7084 66.8424 66.5328 66.3596 66.3644ZM65.6847 75.3307C65.1001 74.544 64.585 73.6921 64.1531 72.8091C64.7589 74.2532 65.5581 75.5475 66.7134 76.7027L66.7232 76.7125L66.7326 76.7227C67.369 77.408 68.008 77.8996 68.6251 78.2467C67.5046 77.458 66.5136 76.4458 65.6847 75.3307ZM75.4641 75.5154C75.8985 74.6465 75.911 73.8128 75.5015 72.9459C75.7846 73.7324 75.7967 74.5125 75.5112 75.1787C75.205 75.8931 74.5926 76.3875 73.8288 76.5784L73.617 76.6314L73.4098 76.5623C73.3252 76.5341 73.2444 76.4969 73.1683 76.455C73.3424 76.6533 73.5256 76.8555 73.7217 77.0632L73.7415 77.0583C74.7005 76.8185 75.2238 76.4027 75.4073 75.6689L75.4273 75.589L75.4641 75.5154Z" stroke="#333B41" stroke-width="1.5"/>
<path d="M90.7817 66.6734C90.4562 67.062 90.1084 67.4323 89.7404 67.7771C89.9069 67.6374 90.0745 67.4844 90.2426 67.317C90.4332 67.1067 90.6125 66.8922 90.7817 66.6734ZM93.9904 57.4629C93.9931 57.4482 93.9958 57.4336 93.9985 57.4189C92.4669 57.7173 90.8898 58.1955 89.1138 58.8616L89.1138 58.8617L89.1027 58.8656C85.6254 60.1075 83.7148 61.5078 82.8639 63.3818C83.4433 62.1922 84.4856 61.2208 85.9543 60.3771C87.6626 59.3957 90.0171 58.5465 93.0761 57.7122L93.9904 57.4629ZM83.9138 67.1641C83.613 67.0638 83.3531 66.9104 83.14 66.7123C83.3282 67.0575 83.5877 67.3413 83.9505 67.5208C84.0559 67.4112 84.1572 67.3037 84.2551 67.1978C84.2211 67.2009 84.1863 67.2025 84.1509 67.2025H84.0292L83.9138 67.1641Z" stroke="#333B41" stroke-width="1.5"/>
</g>
<defs>
<linearGradient id="paint0_linear_126_43" x1="-7.44304" y1="24.8889" x2="195.1" y2="114.913" gradientUnits="userSpaceOnUse">
<stop stop-color="#F9804B"/>
<stop offset="1" stop-color="#FE9013"/>
</linearGradient>
<clipPath id="clip0_126_43">
<rect width="168" height="168" rx="5" fill="white"/>
</clipPath>
</defs>
</svg>
